<svg width="120" height="110" viewBox="0 0 120 110" fill="none" xmlns="http://www.w3.org/2000/svg">
<rect width="120" height="110" rx="30" fill="#FBFBFB"/>
<path d="M101.068 38.4345L70.1616 21.4638C69.6233 21.1683 68.9705 21.1683 68.4321 21.4638L56.81 27.8455C56.5475 27.9185 56.3025 28.0526 56.0948 28.2379L37.5259 38.4345C36.951 38.7503 36.5938 39.354 36.5938 40.0095V43.6833H15.8623C14.8698 43.6833 14.0654 44.4884 14.0654 45.4802C14.0654 46.4727 14.8698 47.277 15.8623 47.277H36.5938V53.7458H26.2919C25.2994 53.7458 24.495 54.5509 24.495 55.5427C24.495 56.5352 25.2994 57.3395 26.2919 57.3395H36.5938V66.6833H21.5C20.5075 66.6833 19.7031 67.4884 19.7031 68.4802C19.7031 69.4727 20.5075 70.277 21.5 70.277H36.5938V73.9515C36.5938 74.6071 36.951 75.2107 37.5259 75.5266L68.4321 92.4972C68.7017 92.6453 68.9993 92.719 69.2969 92.719C69.5945 92.719 69.8921 92.6453 70.1616 92.4972L101.068 75.5266C101.643 75.2107 102 74.6071 102 73.9515V65.9049C102 64.9131 101.196 64.108 100.203 64.108C99.2106 64.108 98.4062 64.9131 98.4062 65.9049V72.8881L71.0938 87.8857V58.0436L79.7798 53.2741V60.8435C79.7798 61.4794 80.1153 62.0676 80.6621 62.3904C80.9436 62.5568 81.2601 62.6403 81.5767 62.6403C81.8743 62.6403 82.1726 62.5666 82.4428 62.4178L89.066 58.7728C89.6395 58.457 89.996 57.854 89.996 57.1985V47.6645L98.4062 43.0467V51.5299C98.4062 52.5224 99.2106 53.3268 100.203 53.3268C101.196 53.3268 102 52.5224 102 51.5299V40.0095C102 39.354 101.643 38.7503 101.068 38.4345V38.4345ZM67.5 87.8857L40.1875 72.8881V43.0467L67.5 58.0436V87.8857ZM69.2969 54.9306L42.1241 40.0095L50.6641 35.3201L77.8376 50.2412L69.2969 54.9306ZM81.5711 48.1909L54.3976 33.2698L57.3434 31.6527L84.5163 46.5737L81.5711 48.1909ZM86.4023 56.1365L83.3736 57.8035V51.3011L86.4023 49.6376V56.1365ZM88.2497 44.5235L61.0769 29.6024L69.2969 25.0891L96.4697 40.0095L88.2497 44.5235Z" fill="#2F2C2C"/>
<path d="M100.203 56.9219C99.7307 56.9219 99.2668 57.1121 98.9327 57.4483C98.5986 57.7824 98.4062 58.2443 98.4062 58.7188C98.4062 59.1911 98.5986 59.6551 98.9327 59.9892C99.2668 60.3233 99.7307 60.5156 100.203 60.5156C100.676 60.5156 101.139 60.3233 101.474 59.9892C101.808 59.6551 102 59.1911 102 58.7188C102 58.2443 101.808 57.7824 101.474 57.4483C101.139 57.1121 100.676 56.9219 100.203 56.9219Z" fill="#2F2C2C"/>
<path d="M14.3722 66.6836H11.7969C10.8044 66.6836 10 67.4887 10 68.4805C10 69.473 10.8044 70.2773 11.7969 70.2773H14.3722C15.3647 70.2773 16.169 69.473 16.169 68.4805C16.169 67.4887 15.3647 66.6836 14.3722 66.6836Z" fill="#2F2C2C"/>
<path d="M20.9019 55.543C20.9019 55.0706 20.7095 54.6073 20.3747 54.2732C20.0406 53.9384 19.5774 53.7461 19.105 53.7461C18.6319 53.7461 18.1686 53.9384 17.8345 54.2732C17.4983 54.6073 17.3081 55.0706 17.3081 55.543C17.3081 56.0161 17.4983 56.4793 17.8345 56.8134C18.1686 57.1475 18.6319 57.3398 19.105 57.3398C19.5774 57.3398 20.0406 57.1482 20.3747 56.8134C20.7095 56.4793 20.9019 56.0161 20.9019 55.543Z" fill="#2F2C2C"/>
</svg>
