<svg width="120" height="110" viewBox="0 0 120 110" fill="none" xmlns="http://www.w3.org/2000/svg">
<rect width="120" height="110" rx="30" fill="#FBFBFB"/>
<g clip-path="url(#clip0)">
<path d="M89.2138 56.597C89.2068 53.7539 88.5368 50.9597 87.2593 48.4232L90.1934 45.4891C92.3931 43.2895 92.3931 39.7101 90.1934 37.5102C89.0962 36.4131 87.6559 35.8634 86.2146 35.8607C86.2126 34.3567 85.6261 32.9431 84.5624 31.8793C83.4646 30.7816 82.0231 30.2318 80.581 30.2298C80.579 28.7876 80.0291 27.3461 78.9313 26.2483C77.8682 25.1853 76.4554 24.5988 74.9525 24.5961C74.9497 23.0932 74.3633 21.6805 73.3003 20.6173C72.2347 19.5517 70.8178 18.9648 69.3109 18.9648C67.804 18.9648 66.3871 19.5517 65.3216 20.6173L59.5019 26.4371L56.2636 23.1987C55.198 22.133 53.7813 21.5462 52.2742 21.5462C50.7671 21.5462 49.3504 22.133 48.2849 23.1987C47.2211 24.2625 46.6348 25.6761 46.6326 27.1801C45.1914 27.1828 43.751 27.7325 42.6538 28.8296C41.5906 29.8928 41.0043 31.3054 41.0015 32.8084C39.4986 32.8113 38.0858 33.3976 37.0226 34.4608C35.2061 36.2773 34.8914 39.0339 36.0749 41.1783C35.2598 41.4447 34.4933 41.8998 33.8465 42.5466C31.6468 44.7464 31.6468 48.3256 33.8465 50.5255L36.1964 52.8754L17.527 71.5448C16.8787 72.193 16.8787 73.2442 17.527 73.8927C17.8512 74.2167 18.276 74.3789 18.7009 74.3789C19.1257 74.3789 19.5507 74.2167 19.8747 73.8927L32.5305 61.2369L44.386 73.0923L25.3968 92.0815C24.7485 92.7298 24.7485 93.781 25.3968 94.4294C25.721 94.7535 26.1458 94.9157 26.5707 94.9157C26.9955 94.9157 27.4205 94.7535 27.7445 94.4294L53.4107 68.7632C53.8835 68.2904 54.4217 67.9073 55.0041 67.6191L59.0209 70.2648C61.6776 72.0146 64.9167 72.6982 68.0396 72.1926L90.3611 94.5141C90.6853 94.8381 91.1101 95.0003 91.535 95.0003C91.9598 95.0003 92.3848 94.8381 92.7088 94.5141C93.3571 93.8658 93.3571 92.8146 92.7088 92.1662L79.7576 79.2149L81.3232 77.6492C81.9715 77.0009 81.9715 75.9497 81.3232 75.3013C80.6749 74.6532 79.6237 74.6532 78.9753 75.3013L77.4096 76.867L73.7439 73.2012L87.433 59.512L91.0989 63.1779L89.5367 64.7401C88.8884 65.3885 88.8884 66.4396 89.5367 67.088C89.8609 67.4121 90.2857 67.5743 90.7106 67.5743C91.1354 67.5743 91.5604 67.4121 91.8844 67.088L93.4466 65.5258L99.1649 71.2441C99.4891 71.5682 99.9139 71.7304 100.339 71.7304C100.764 71.7304 101.189 71.5682 101.513 71.2441C102.161 70.5958 102.161 69.5447 101.513 68.8962L89.2138 56.597ZM67.6694 22.9651C68.1078 22.5266 68.6908 22.2851 69.3109 22.2851C69.9309 22.2851 70.514 22.5266 70.9524 22.9651C71.391 23.4035 71.6324 23.9866 71.6324 24.6066C71.6324 25.2268 71.3909 25.8099 70.9524 26.2483L67.3043 29.8964C66.656 30.5447 66.656 31.5959 67.3043 32.2443C67.9526 32.8928 69.0038 32.8926 69.6522 32.2443L73.3003 28.5962C73.7388 28.1576 74.3218 27.9162 74.942 27.9162C75.5621 27.9162 76.1451 28.1578 76.5836 28.5962C77.4888 29.5015 77.4888 30.9742 76.5836 31.8794L71.0129 37.4502C70.3646 38.0984 70.3646 39.1496 71.0129 39.7981C71.3371 40.1223 71.7619 40.2843 72.1867 40.2843C72.6115 40.2843 73.0365 40.1223 73.3606 39.7981L78.9313 34.2274C79.3697 33.7888 79.9528 33.5474 80.5728 33.5474C81.1931 33.5474 81.7761 33.7889 82.2145 34.2274C82.653 34.6658 82.8945 35.2488 82.8945 35.8689C82.8945 36.4889 82.653 37.072 82.2145 37.5104L76.6438 43.0811C75.9955 43.7294 75.9955 44.7806 76.6438 45.429C76.968 45.7533 77.3929 45.9153 77.8177 45.9153C78.2425 45.9153 78.6675 45.7533 78.9916 45.429L84.5621 39.8583C85.4672 38.9531 86.9402 38.9532 87.8453 39.8583C88.7506 40.7636 88.7506 42.2365 87.8453 43.1416L74.1234 56.8635C69.7301 61.257 63.8888 63.6766 57.6752 63.6766C55.9927 63.6766 54.3787 64.1197 52.964 64.9476L43.355 55.3386C44.0944 55.0594 44.7731 54.625 45.3488 54.0492C46.4126 52.9854 46.999 51.5718 47.0011 50.0678C48.4423 50.0651 49.8828 49.5153 50.98 48.4181C52.0771 47.3209 52.6268 45.8806 52.6295 44.4393C54.1335 44.4373 55.5473 43.8508 56.6109 42.787C57.7081 41.6898 58.2578 40.2495 58.2604 38.8081C59.7645 38.8061 61.1781 38.2196 62.2417 37.156C63.3074 36.0903 63.8942 34.6736 63.8942 33.1665C63.8942 31.6595 63.3074 30.2427 62.2417 29.1771L61.8491 28.7845L67.6694 22.9651ZM50.6327 25.5464C51.0711 25.108 51.6541 24.8664 52.2742 24.8664C52.8943 24.8664 53.4773 25.108 53.9157 25.5464L59.8945 31.525C60.3329 31.9634 60.5745 32.5465 60.5745 33.1665C60.5745 33.7866 60.3329 34.3696 59.8945 34.8082C59.4561 35.2467 58.873 35.4882 58.253 35.4882C57.6331 35.4882 57.0504 35.2468 56.6119 34.8087C56.6118 34.8086 56.6116 34.8084 56.6114 34.8081L50.6327 28.8295C50.1942 28.391 49.9527 27.808 49.9527 27.1879C49.9527 26.5679 50.1941 25.985 50.6327 25.5464V25.5464ZM45.0015 31.1774C45.4542 30.7247 46.0486 30.4986 46.6432 30.4986C47.2377 30.4986 47.8324 30.7248 48.2848 31.1774L54.2634 37.156C55.1686 38.0612 55.1685 39.5341 54.2634 40.4394C53.8249 40.8778 53.2419 41.1194 52.6218 41.1194C52.0019 41.1194 51.4192 40.878 50.9808 40.4399C50.9806 40.4397 50.9805 40.4395 50.9803 40.4392L45.0017 34.4606C44.5631 34.0222 44.3217 33.4391 44.3217 32.8189C44.3215 32.1988 44.5631 31.616 45.0015 31.1774V31.1774ZM39.3706 36.8085C39.809 36.3699 40.392 36.1285 41.0121 36.1285C41.6323 36.1285 42.2153 36.3701 42.6538 36.8085L48.6324 42.7871C49.5377 43.6924 49.5377 45.1652 48.6324 46.0703C47.7271 46.9754 46.2543 46.9756 45.349 46.0703L39.3704 40.0917C38.4653 39.1866 38.4653 37.7136 39.3706 36.8085V36.8085ZM36.1942 44.8943C36.647 44.4416 37.2414 44.2155 37.8359 44.2155C38.4296 44.2155 39.0236 44.4414 39.4758 44.8928L43.0012 48.4183C43.4397 48.8567 43.6812 49.4397 43.6812 50.0598C43.6812 50.6798 43.4397 51.2629 43.0012 51.7015C42.5628 52.1401 41.9798 52.3815 41.3596 52.3815C40.74 52.3815 40.1573 52.1403 39.7189 51.7023L39.718 51.7015L36.1942 48.1777C35.2891 47.2723 35.2891 45.7994 36.1942 44.8943V44.8943ZM34.8784 58.889L38.5443 55.2231L50.3999 67.0785L46.734 70.7444L34.8784 58.889ZM69.7596 69.2168C69.3507 68.8081 68.7587 68.6406 68.1969 68.7768C65.6843 69.3816 63.0056 68.9135 60.8474 67.4919L59.9483 66.8996C66.1912 66.3743 71.9907 63.6922 76.4715 59.2112L84.7565 50.9264C85.4692 52.6487 85.8537 54.4897 85.8891 56.3609L71.3965 70.8537L69.7596 69.2168Z" fill="#2F2C2C"/>
<path d="M84.2542 70.0226C83.9455 70.3313 83.7678 70.758 83.7678 71.1963C83.7678 71.6329 83.9455 72.0612 84.2542 72.3699C84.563 72.6786 84.9914 72.8564 85.428 72.8564C85.8663 72.8564 86.2929 72.6788 86.6017 72.3699C86.9105 72.0612 87.0881 71.6329 87.0881 71.1963C87.0881 70.7578 86.9105 70.3313 86.6017 70.0226C86.2929 69.7138 85.8646 69.5361 85.428 69.5361C84.9914 69.5361 84.563 69.7138 84.2542 70.0226Z" fill="#2F2C2C"/>
<path d="M28.2166 23.5626C28.5408 23.8868 28.9656 24.0488 29.3905 24.0488C29.8153 24.0488 30.2403 23.8868 30.5643 23.5626C31.2126 22.9143 31.2126 21.8631 30.5643 21.2146L22.75 13.4003C22.1017 12.752 21.0505 12.752 20.402 13.4003C19.7536 14.0485 19.7538 15.0997 20.402 15.7482L28.2166 23.5626Z" fill="#2F2C2C"/>
<path d="M37.2546 19.0503C38.1715 19.0503 38.9147 18.3071 38.9147 17.3902V11.6601C38.9147 10.7432 38.1715 10 37.2546 10C36.3377 10 35.5945 10.7432 35.5945 11.6601V17.3902C35.5945 18.3071 36.3377 19.0503 37.2546 19.0503Z" fill="#2F2C2C"/>
<path d="M18.6611 31.913H24.3912C25.3081 31.913 26.0513 31.1698 26.0513 30.2529C26.0513 29.336 25.3081 28.5928 24.3912 28.5928H18.6611C17.7442 28.5928 17.001 29.336 17.001 30.2529C17.001 31.1698 17.7442 31.913 18.6611 31.913V31.913Z" fill="#2F2C2C"/>
<path d="M89.61 24.0498C90.0348 24.0498 90.4598 23.8878 90.7838 23.5636L98.5982 15.7492C99.2465 15.1009 99.2465 14.0498 98.5982 13.4013C97.9499 12.7529 96.8987 12.753 96.2503 13.4013L88.4359 21.2157C87.7876 21.864 87.7876 22.9151 88.4359 23.5636C88.7603 23.8878 89.1851 24.0498 89.61 24.0498Z" fill="#2F2C2C"/>
<path d="M81.7458 19.0503C82.6627 19.0503 83.4059 18.3071 83.4059 17.3902V11.6601C83.4059 10.7432 82.6627 10 81.7458 10C80.8289 10 80.0857 10.7432 80.0857 11.6601V17.3902C80.0857 18.3071 80.8289 19.0503 81.7458 19.0503Z" fill="#2F2C2C"/>
<path d="M92.9492 30.2529C92.9492 31.1698 93.6925 31.913 94.6093 31.913H100.339C101.256 31.913 102 31.1698 102 30.2529C102 29.336 101.256 28.5928 100.339 28.5928H94.6093C93.6925 28.5928 92.9492 29.336 92.9492 30.2529V30.2529Z" fill="#2F2C2C"/>
</g>
<defs>
<clipPath id="clip0">
<rect width="85" height="85" fill="white" transform="translate(17 10)"/>
</clipPath>
</defs>
</svg>
