<?xml version="1.0" encoding="UTF-8"?>
<svg xmlns="http://www.w3.org/2000/svg" xmlns:xlink="http://www.w3.org/1999/xlink" width="841.89pt" height="282.118pt" viewBox="0 0 841.89 282.118" version="1.1">
<g id="surface16">
<path style=" stroke:none;fill-rule:nonzero;fill:rgb(13.729858%,12.159729%,12.548828%);fill-opacity:1;" d="M 327.304688 118.582031 L 321.953125 123.410156 C 316.289062 117.535156 308.417969 113.96875 299.605469 113.96875 C 283.34375 113.96875 270.4375 126.769531 270.4375 143.765625 C 270.4375 160.867188 283.34375 173.5625 299.605469 173.5625 C 308.417969 173.5625 316.289062 170.101562 321.953125 164.121094 L 327.304688 169.15625 C 320.484375 176.605469 310.625 181.222656 299.605469 181.222656 C 278.9375 181.222656 262.253906 164.539062 262.253906 143.765625 C 262.253906 123.09375 278.9375 106.308594 299.605469 106.308594 C 310.625 106.308594 320.484375 111.03125 327.304688 118.582031 "/>
<path style=" stroke:none;fill-rule:nonzero;fill:rgb(13.729858%,12.159729%,12.548828%);fill-opacity:1;" d="M 356.90625 153.3125 L 382.507812 153.3125 L 369.707031 122.152344 Z M 345.996094 180.488281 L 336.96875 180.488281 L 367.398438 107.042969 L 372.015625 107.042969 L 402.335938 180.488281 L 393.3125 180.488281 L 385.339844 160.972656 L 353.96875 160.972656 Z M 345.996094 180.488281 "/>
<path style=" stroke:none;fill-rule:nonzero;fill:rgb(13.729858%,12.159729%,12.548828%);fill-opacity:1;" d="M 441.59375 153.3125 C 454.285156 153.3125 465.40625 147.648438 465.40625 134.007812 C 465.40625 120.578125 454.285156 114.703125 441.59375 114.703125 L 426.0625 114.703125 L 426.0625 153.3125 Z M 441.066406 107.042969 C 459.742188 107.042969 473.171875 117.117188 473.171875 134.007812 C 473.171875 151.003906 459.742188 160.972656 441.066406 160.972656 L 426.0625 160.972656 L 426.0625 180.488281 L 417.878906 180.488281 L 417.878906 107.042969 Z M 441.066406 107.042969 "/>
<path style=" stroke:none;fill-rule:nonzero;fill:rgb(13.729858%,12.159729%,12.548828%);fill-opacity:1;" d="M 515.992188 153.3125 C 528.6875 153.3125 539.808594 147.648438 539.808594 134.007812 C 539.808594 120.578125 528.6875 114.703125 515.992188 114.703125 L 500.464844 114.703125 L 500.464844 153.3125 Z M 515.46875 107.042969 C 534.144531 107.042969 547.574219 117.117188 547.574219 134.007812 C 547.574219 151.003906 534.144531 160.972656 515.46875 160.972656 L 500.464844 160.972656 L 500.464844 180.488281 L 492.277344 180.488281 L 492.277344 107.042969 Z M 515.46875 107.042969 "/>
<path style=" stroke:none;fill-rule:nonzero;fill:rgb(13.729858%,12.159729%,12.548828%);fill-opacity:1;" d="M 608.753906 139.566406 L 608.753906 147.226562 L 572.765625 147.226562 L 572.765625 172.828125 L 611.0625 172.828125 L 611.0625 180.488281 L 564.582031 180.488281 L 564.582031 107.042969 L 611.0625 107.042969 L 611.0625 114.703125 L 572.765625 114.703125 L 572.765625 139.566406 Z M 608.753906 139.566406 "/>
<path style=" stroke:none;fill-rule:nonzero;fill:rgb(13.729858%,12.159729%,12.548828%);fill-opacity:1;" d="M 628.804688 180.488281 L 628.804688 107.042969 L 636.988281 107.042969 L 636.988281 172.828125 L 674.550781 172.828125 L 674.550781 180.488281 Z M 628.804688 180.488281 "/>
<path style=" stroke:none;fill-rule:nonzero;fill:rgb(13.729858%,12.159729%,12.548828%);fill-opacity:1;" d="M 691.347656 180.488281 L 691.347656 107.042969 L 699.53125 107.042969 L 699.53125 172.828125 L 737.09375 172.828125 L 737.09375 180.488281 Z M 691.347656 180.488281 "/>
<path style=" stroke:none;fill-rule:nonzero;fill:rgb(13.729858%,12.159729%,12.548828%);fill-opacity:1;" d="M 752.945312 143.765625 C 752.945312 160.867188 765.847656 173.5625 782.113281 173.5625 C 798.375 173.5625 811.386719 160.867188 811.386719 143.765625 C 811.386719 126.765625 798.375 113.964844 782.113281 113.964844 C 765.847656 113.964844 752.945312 126.765625 752.945312 143.765625 M 819.570312 143.765625 C 819.570312 164.539062 802.78125 181.222656 782.113281 181.222656 C 761.441406 181.222656 744.757812 164.539062 744.757812 143.765625 C 744.757812 123.09375 761.441406 106.308594 782.113281 106.308594 C 802.78125 106.308594 819.570312 123.09375 819.570312 143.765625 "/>
<path style=" stroke:none;fill-rule:nonzero;fill:rgb(13.729858%,12.159729%,12.548828%);fill-opacity:1;" d="M 132.675781 143.625 L 181.597656 94.699219 L 230.523438 143.625 L 181.597656 192.546875 Z M 128.464844 245.679688 L 79.542969 196.757812 L 128.464844 147.832031 L 177.390625 196.757812 Z M 26.546875 143.765625 L 75.472656 94.839844 L 124.398438 143.765625 L 75.472656 192.6875 Z M 128.605469 41.707031 L 177.53125 90.628906 L 128.605469 139.554688 L 79.683594 90.628906 Z M 234.75 143.625 L 181.757812 90.632812 L 181.757812 90.628906 L 128.605469 37.480469 L 75.453125 90.628906 L 75.453125 90.632812 L 22.320312 143.765625 L 75.472656 196.917969 L 128.464844 249.90625 L 181.617188 196.757812 Z M 234.75 143.625 "/>
<path style=" stroke:none;fill-rule:nonzero;fill:rgb(13.729858%,12.159729%,12.548828%);fill-opacity:1;" d="M 108.183594 179.207031 L 111.917969 182.722656 C 115.875 178.546875 121.367188 176.128906 127.519531 176.128906 C 138.875 176.128906 147.882812 184.992188 147.882812 196.933594 C 147.882812 208.800781 138.875 217.738281 127.519531 217.738281 C 121.367188 217.738281 115.875 215.246094 111.917969 211.144531 L 108.183594 214.515625 C 112.941406 219.789062 119.828125 223.082031 127.519531 223.082031 C 141.949219 223.082031 153.597656 211.363281 153.597656 196.933594 C 153.597656 182.429688 141.949219 170.78125 127.519531 170.78125 C 119.828125 170.78125 112.941406 174.007812 108.183594 179.207031 "/>
<path style=" stroke:none;fill-rule:nonzero;fill:rgb(13.729858%,12.159729%,12.548828%);fill-opacity:1;" d="M 149.019531 108.355469 L 145.285156 104.839844 C 141.328125 109.015625 135.835938 111.433594 129.683594 111.433594 C 118.328125 111.433594 109.320312 102.570312 109.320312 90.628906 C 109.320312 78.765625 118.328125 69.828125 129.683594 69.828125 C 135.835938 69.828125 141.328125 72.316406 145.285156 76.421875 L 149.019531 73.050781 C 144.257812 67.777344 137.375 64.480469 129.683594 64.480469 C 115.253906 64.480469 103.605469 76.203125 103.605469 90.628906 C 103.605469 105.132812 115.253906 116.78125 129.683594 116.78125 C 137.375 116.78125 144.257812 113.558594 149.019531 108.355469 "/>
<path style=" stroke:none;fill-rule:nonzero;fill:rgb(13.729858%,12.159729%,12.548828%);fill-opacity:1;" d="M 101.621094 142.625 L 96.496094 142.78125 C 96.648438 148.53125 94.472656 154.125 90.125 158.476562 C 82.097656 166.503906 69.457031 166.605469 61.015625 158.164062 C 52.625 149.773438 52.675781 137.082031 60.703125 129.054688 C 65.054688 124.703125 70.699219 122.582031 76.398438 122.683594 L 76.65625 117.660156 C 69.5625 117.296875 62.359375 119.835938 56.921875 125.273438 C 46.722656 135.480469 46.773438 152 56.976562 162.203125 C 67.230469 172.460938 83.703125 172.460938 93.90625 162.257812 C 99.34375 156.816406 101.933594 149.667969 101.621094 142.625 "/>
<path style=" stroke:none;fill-rule:nonzero;fill:rgb(13.729858%,12.159729%,12.548828%);fill-opacity:1;" d="M 200.324219 125.308594 C 194.886719 119.871094 187.683594 117.332031 180.589844 117.695312 L 180.847656 122.71875 C 186.546875 122.617188 192.191406 124.742188 196.542969 129.089844 C 204.570312 137.121094 204.621094 149.808594 196.230469 158.199219 C 187.789062 166.640625 175.152344 166.539062 167.121094 158.511719 C 162.773438 154.160156 160.597656 148.566406 160.753906 142.816406 L 155.625 142.664062 C 155.3125 149.707031 157.902344 156.855469 163.339844 162.292969 C 173.542969 172.496094 190.015625 172.496094 200.273438 162.242188 C 210.476562 152.035156 210.527344 135.511719 200.324219 125.308594 "/>
</g>
</svg>
