<svg width="841.89" height="595.28" xmlns="http://www.w3.org/2000/svg">

 <g>
  <title>background</title>
  <rect fill="none" id="canvas_background" height="402" width="582" y="-1" x="-1"/>
 </g>
 <g>
  <title>Layer 1</title>
  <g fill="none" id="surface1">
   <path id="svg_1" fill-rule="nonzero" fill="#ffffff" d="m130.60938,431.60156l-7.27344,6.5625c-7.70313,-7.98828 -18.39844,-12.83593 -30.375,-12.83593c-22.10547,0 -39.64844,17.39843 -39.64844,40.5039c0,23.24219 17.54297,40.5 39.64844,40.5c11.97656,0 22.67187,-4.70703 30.375,-12.83203l7.27344,6.84375c-9.26954,10.125 -22.67579,16.39844 -37.64844,16.39844c-28.09375,0 -50.77344,-22.67578 -50.77344,-50.91016c0,-28.09765 22.67969,-50.91406 50.77344,-50.91406c14.97265,0 28.3789,6.41797 37.64844,16.68359"/>
   <path id="svg_2" fill-rule="nonzero" fill="#ffffff" d="m170.83984,478.80469l34.79688,0l-17.39844,-42.35156l-17.39844,42.35156zm-14.82812,36.9414l-12.26563,0l41.35547,-99.82812l6.27344,0l41.21484,99.82812l-12.26171,0l-10.83985,-26.52734l-42.64062,0l-10.83594,26.52734zm0,0"/>
   <path id="svg_3" fill-rule="nonzero" fill="#ffffff" d="m285.94922,478.80469c17.25391,0 32.37109,-7.69922 32.37109,-26.23828c0,-18.25391 -15.11718,-26.23828 -32.37109,-26.23828l-21.10938,0l0,52.47656l21.10938,0zm-0.71484,-62.88672c25.38281,0 43.63671,13.69141 43.63671,36.64844c0,23.10156 -18.2539,36.65234 -43.63671,36.65234l-20.39454,0l0,26.52734l-11.12109,0l0,-99.82812l31.51563,0zm0,0"/>
   <path id="svg_4" fill-rule="nonzero" fill="#ffffff" d="m387.07422,478.80469c17.25391,0 32.37109,-7.69922 32.37109,-26.23828c0,-18.25391 -15.11718,-26.23828 -32.37109,-26.23828l-21.10547,0l0,52.47656l21.10547,0zm-0.71484,-62.88672c25.38671,0 43.64062,13.69141 43.64062,36.64844c0,23.10156 -18.25391,36.65234 -43.64062,36.65234l-20.39063,0l0,26.52734l-11.125,0l0,-99.82812l31.51563,0zm0,0"/>
   <path id="svg_5" fill-rule="nonzero" fill="#ffffff" d="m513.15625,460.125l0,10.41016l-48.91406,0l0,34.79687l52.05469,0l0,10.41016l-63.17579,0l0,-99.82422l63.17579,0l0,10.40625l-52.05469,0l0,33.80078l48.91406,0zm0,0"/>
   <path id="svg_6" fill-rule="nonzero" fill="#ffffff" d="m540.41016,515.74219l0,-99.82422l11.12109,0l0,89.41406l51.05859,0l0,10.41016l-62.17968,0zm0,0"/>
   <path id="svg_7" fill-rule="nonzero" fill="#ffffff" d="m625.41797,515.74219l0,-99.82422l11.125,0l0,89.41406l51.05469,0l0,10.41016l-62.17969,0zm0,0"/>
   <path id="svg_8" fill-rule="nonzero" fill="#ffffff" d="m709.14453,465.83203c0,23.24219 17.53906,40.5 39.64453,40.5c22.10547,0 39.78907,-17.25781 39.78907,-40.5c0,-23.10547 -17.6836,-40.5039 -39.78907,-40.5039c-22.10547,0 -39.64453,17.39843 -39.64453,40.5039m90.5586,0c0,28.23438 -22.82032,50.91016 -50.91407,50.91016c-28.09375,0 -50.76953,-22.67578 -50.76953,-50.91016c0,-28.09765 22.67578,-50.91406 50.76953,-50.91406c28.09375,0 50.91407,22.81641 50.91407,50.91406"/>
   <path id="svg_9" fill-rule="nonzero" fill="#ffffff" d="m426.46094,222.8125l66.49609,-66.5l66.5,66.5l-66.5,66.49609l-66.49609,-66.49609zm-5.72266,138.71875l-66.49609,-66.5l66.49609,-66.5l66.5,66.5l-66.5,66.5zm-138.52344,-138.52734l66.4961,-66.5l66.5,66.5l-66.5,66.49609l-66.4961,-66.49609zm138.71875,-138.71875l66.5,66.5l-66.5,66.49609l-66.5,-66.49609l66.5,-66.5zm144.26954,138.52734l-72.02735,-72.02734l0.00391,0l-72.2461,-72.2461l-144.46484,144.46485l72.02734,72.02734l0.21485,0.21875l72.02734,72.02734l144.46485,-144.46484zm0,0"/>
   <path id="svg_10" fill-rule="nonzero" fill="#ffffff" d="m393.17188,271.17578l5.07421,4.78125c5.37891,-5.67578 12.84766,-8.96094 21.20704,-8.96094c15.43359,0 27.67968,12.04688 27.67968,28.27344c0,16.13281 -12.24609,28.27735 -27.67968,28.27735c-8.35938,0 -15.82813,-3.38672 -21.20704,-8.96094l-5.07421,4.57812c6.47265,7.17188 15.82812,11.65235 26.28125,11.65235c19.61328,0 35.44531,-15.92969 35.44531,-35.54688c0,-19.71094 -15.83203,-35.54297 -35.44531,-35.54297c-10.45313,0 -19.8086,4.38282 -26.28125,11.44922"/>
   <path id="svg_11" fill-rule="nonzero" fill="#ffffff" d="m448.67969,174.87891l-5.07813,-4.78125c-5.375,5.67578 -12.84375,8.96093 -21.20703,8.96093c-15.42969,0 -27.67578,-12.04687 -27.67578,-28.27734c0,-16.12891 12.24609,-28.27344 27.67578,-28.27344c8.36328,0 15.83203,3.38282 21.20703,8.96094l5.07813,-4.58203c-6.47266,-7.16797 -15.83203,-11.64844 -26.28516,-11.64844c-19.61328,0 -35.44531,15.92969 -35.44531,35.54297c0,19.71484 15.83203,35.54688 35.44531,35.54688c10.45313,0 19.8125,-4.38282 26.28516,-11.44922"/>
   <path id="svg_12" fill-rule="nonzero" fill="#ffffff" d="m384.25781,221.45703l-6.97265,0.20703c0.21093,7.81641 -2.7461,15.42188 -8.65625,21.33203c-10.91407,10.91407 -28.09375,11.05469 -39.56641,-0.42187c-11.40625,-11.40234 -11.33594,-28.65234 -0.42187,-39.56641c5.91406,-5.91015 13.58593,-8.79687 21.33203,-8.65625l0.35156,-6.82812c-9.64453,-0.49219 -19.43359,2.95703 -26.82422,10.34765c-13.86719,13.86719 -13.79687,36.32813 0.07031,50.19532c13.9375,13.9375 36.32813,13.9414 50.19922,0.07031c7.39063,-7.39063 10.91016,-17.10547 10.48828,-26.67969"/>
   <path id="svg_13" fill-rule="nonzero" fill="#ffffff" d="m518.41406,197.91797c-7.39453,-7.39063 -17.18359,-10.83984 -26.82422,-10.34766l0.35157,6.82813c7.74218,-0.14063 15.41797,2.74609 21.33203,8.66015c10.91015,10.91016 10.98047,28.16016 -0.42188,39.56641c-11.47656,11.47266 -28.65625,11.33203 -39.5664,0.42188c-5.91016,-5.91407 -8.8711,-13.51563 -8.66016,-21.33204l-6.96875,-0.21093c-0.42187,9.57422 3.09766,19.28906 10.48828,26.68359c13.8711,13.86719 36.25781,13.86719 50.19922,-0.07422c13.86719,-13.86719 13.93359,-36.32422 0.07031,-50.19531"/>
  </g>
 </g>
</svg>