<svg width="841.89" height="282.118" xmlns="http://www.w3.org/2000/svg">

 <g>
  <title>background</title>
  <rect fill="none" id="canvas_background" height="402" width="582" y="-1" x="-1"/>
 </g>
 <g>
  <title>Layer 1</title>
  <g id="surface16">
   <path id="svg_1" fill-rule="nonzero" fill="#ffffff" d="m327.30469,118.58203l-5.35156,4.82813c-5.66407,-5.875 -13.53516,-9.44141 -22.34766,-9.44141c-16.26172,0 -29.16797,12.80078 -29.16797,29.79688c0,17.10156 12.90625,29.79687 29.16797,29.79687c8.8125,0 16.68359,-3.46094 22.34766,-9.44141l5.35156,5.03516c-6.82031,7.44922 -16.67969,12.06641 -27.69922,12.06641c-20.66797,0 -37.35156,-16.6836 -37.35156,-37.45703c0,-20.67188 16.68359,-37.45704 37.35156,-37.45704c11.01953,0 20.87891,4.72266 27.69922,12.27344"/>
   <path id="svg_2" fill-rule="nonzero" fill="#ffffff" d="m356.90625,153.3125l25.60156,0l-12.80078,-31.16016l-12.80078,31.16016zm-10.91016,27.17578l-9.02734,0l30.42969,-73.44531l4.61719,0l30.32031,73.44531l-9.02344,0l-7.97266,-19.51562l-31.37109,0l-7.97266,19.51562zm0,0"/>
   <path id="svg_3" fill-rule="nonzero" fill="#ffffff" d="m441.59375,153.3125c12.69141,0 23.8125,-5.66406 23.8125,-19.30469c0,-13.42968 -11.12109,-19.30468 -23.8125,-19.30468l-15.53125,0l0,38.60937l15.53125,0zm-0.52734,-46.26953c18.67578,0 32.10547,10.07422 32.10547,26.96484c0,16.9961 -13.42969,26.96485 -32.10547,26.96485l-15.00391,0l0,19.51562l-8.18359,0l0,-73.44531l23.1875,0zm0,0"/>
   <path id="svg_4" fill-rule="nonzero" fill="#ffffff" d="m515.99219,153.3125c12.69531,0 23.8164,-5.66406 23.8164,-19.30469c0,-13.42968 -11.12109,-19.30468 -23.8164,-19.30468l-15.52735,0l0,38.60937l15.52735,0zm-0.52344,-46.26953c18.67578,0 32.10547,10.07422 32.10547,26.96484c0,16.9961 -13.42969,26.96485 -32.10547,26.96485l-15.00391,0l0,19.51562l-8.1875,0l0,-73.44531l23.19141,0zm0,0"/>
   <path id="svg_5" fill-rule="nonzero" fill="#ffffff" d="m608.75391,139.56641l0,7.66015l-35.98828,0l0,25.60157l38.29687,0l0,7.66015l-46.48047,0l0,-73.44531l46.48047,0l0,7.66016l-38.29687,0l0,24.86328l35.98828,0zm0,0"/>
   <path id="svg_6" fill-rule="nonzero" fill="#ffffff" d="m628.80469,180.48828l0,-73.44531l8.18359,0l0,65.78516l37.5625,0l0,7.66015l-45.74609,0zm0,0"/>
   <path id="svg_7" fill-rule="nonzero" fill="#ffffff" d="m691.34766,180.48828l0,-73.44531l8.18359,0l0,65.78516l37.5625,0l0,7.66015l-45.74609,0zm0,0"/>
   <path id="svg_8" fill-rule="nonzero" fill="#ffffff" d="m752.94531,143.76563c0,17.10156 12.90235,29.79687 29.16797,29.79687c16.26172,0 29.27344,-12.69531 29.27344,-29.79687c0,-17 -13.01172,-29.80079 -29.27344,-29.80079c-16.26562,0 -29.16797,12.80079 -29.16797,29.80079m66.625,0c0,20.77343 -16.78906,37.45703 -37.45703,37.45703c-20.67187,0 -37.35547,-16.6836 -37.35547,-37.45703c0,-20.67188 16.6836,-37.45704 37.35547,-37.45704c20.66797,0 37.45703,16.78516 37.45703,37.45704"/>
   <path id="svg_9" fill-rule="nonzero" fill="#ffffff" d="m132.67578,143.625l48.92188,-48.92578l48.92578,48.92578l-48.92578,48.92188l-48.92188,-48.92188zm-4.21094,102.05469l-48.92187,-48.92188l48.92187,-48.92578l48.92579,48.92578l-48.92579,48.92188zm-101.91796,-101.91406l48.92578,-48.92579l48.92578,48.92579l-48.92578,48.92187l-48.92578,-48.92187zm102.05859,-102.0586l48.92578,48.92188l-48.92578,48.92578l-48.92188,-48.92578l48.92188,-48.92188zm106.14453,101.91797l-52.99219,-52.99219l0,-0.0039l-53.15234,-53.14844l-53.15234,53.14844l0,0.0039l-53.13282,53.13282l53.15235,53.15234l52.99218,52.98828l53.15235,-53.14844l53.13281,-53.13281zm0,0"/>
   <path id="svg_10" fill-rule="nonzero" fill="#ffffff" d="m108.18359,179.20703l3.73438,3.51563c3.95703,-4.17578 9.44922,-6.59375 15.60156,-6.59375c11.35547,0 20.36328,8.86328 20.36328,20.80468c0,11.86719 -9.00781,20.80469 -20.36328,20.80469c-6.15234,0 -11.64453,-2.49219 -15.60156,-6.59375l-3.73438,3.3711c4.75782,5.27343 11.64454,8.5664 19.33594,8.5664c14.42969,0 26.07813,-11.71875 26.07813,-26.14844c0,-14.5039 -11.64844,-26.15234 -26.07813,-26.15234c-7.6914,0 -14.57812,3.22656 -19.33594,8.42578"/>
   <path id="svg_11" fill-rule="nonzero" fill="#ffffff" d="m149.01953,108.35547l-3.73437,-3.51563c-3.95703,4.17579 -9.44922,6.59375 -15.60157,6.59375c-11.35546,0 -20.36328,-8.86328 -20.36328,-20.80468c0,-11.86328 9.00782,-20.80078 20.36328,-20.80078c6.15235,0 11.64454,2.48828 15.60157,6.59375l3.73437,-3.3711c-4.76172,-5.27344 -11.64453,-8.57031 -19.33594,-8.57031c-14.42968,0 -26.07812,11.72266 -26.07812,26.14844c0,14.5039 11.64844,26.15234 26.07812,26.15234c7.69141,0 14.57422,-3.22266 19.33594,-8.42578"/>
   <path id="svg_12" fill-rule="nonzero" fill="#ffffff" d="m101.62109,142.625l-5.125,0.15625c0.15235,5.75 -2.02343,11.34375 -6.37109,15.69531c-8.02734,8.02735 -20.66797,8.12891 -29.10937,-0.3125c-8.39063,-8.39062 -8.33985,-21.08203 -0.3125,-29.10937c4.35156,-4.35156 9.99609,-6.47266 15.69531,-6.3711l0.25781,-5.02343c-7.09375,-0.36328 -14.29687,2.17578 -19.73437,7.61328c-10.19922,10.20703 -10.14844,26.72656 0.05468,36.92969c10.25391,10.25781 26.72657,10.25781 36.92969,0.05468c5.4375,-5.4414 8.02734,-12.58984 7.71484,-19.63281"/>
   <path id="svg_13" fill-rule="nonzero" fill="#ffffff" d="m200.32422,125.30859c-5.4375,-5.4375 -12.64063,-7.97656 -19.73438,-7.61328l0.25782,5.02344c5.69922,-0.10156 11.34375,2.02344 15.69531,6.37109c8.02734,8.03125 8.07812,20.71875 -0.3125,29.10938c-8.44141,8.44141 -21.07813,8.33984 -29.10938,0.3125c-4.34765,-4.35156 -6.52343,-9.94531 -6.36718,-15.69531l-5.12891,-0.15235c-0.3125,7.04297 2.27734,14.19141 7.71484,19.62891c10.20313,10.20312 26.67579,10.20312 36.9336,-0.05078c10.20312,-10.20703 10.2539,-26.73047 0.05078,-36.9336"/>
  </g>
 </g>
</svg>