<svg width="120" height="111" viewBox="0 0 120 111" fill="none" xmlns="http://www.w3.org/2000/svg">
<path d="M0 30.5C0 13.9315 13.4315 0.5 30 0.5H90C106.569 0.5 120 13.9315 120 30.5V80.5C120 97.0685 106.569 110.5 90 110.5H30C13.4315 110.5 0 97.0685 0 80.5V30.5Z" fill="#FBFBFB"/>
<g clip-path="url(#clip0)">
<path d="M98.9514 17.0593C97.5591 15.6651 95.2998 15.6651 93.9075 17.0593L25.0693 85.8975C23.6758 87.2904 23.6758 89.5478 25.0693 90.9408C25.7658 91.6378 26.679 91.9864 27.5916 91.9864C28.5042 91.9864 29.4173 91.6378 30.1132 90.9408L98.9514 22.1026C100.345 20.7096 100.345 18.4522 98.9514 17.0593Z" fill="#2F2C2C"/>
<path d="M40.9432 16.0381C31.6012 16.0381 24 23.6399 24 32.9819C24 42.324 31.6012 49.9252 40.9432 49.9252C50.2859 49.9252 57.8865 42.3234 57.8865 32.9813C57.8865 23.6393 50.2853 16.0381 40.9432 16.0381ZM40.9432 42.7907C35.5342 42.7907 31.1339 38.3898 31.1339 32.9813C31.1339 27.5729 35.5348 23.172 40.9432 23.172C46.3523 23.172 50.7526 27.5729 50.7526 32.9813C50.7526 38.3898 46.3523 42.7907 40.9432 42.7907Z" fill="#2F2C2C"/>
<path d="M83.0568 58.0967C73.7147 58.0967 66.1135 65.6979 66.1135 75.0399C66.1135 84.382 73.7147 91.9832 83.0568 91.9832C92.3988 91.9832 100 84.3826 100 75.0399C100 65.6973 92.3988 58.0967 83.0568 58.0967ZM83.0568 84.8487C77.6477 84.8487 73.2474 80.4478 73.2474 75.0393C73.2474 69.6309 77.6483 65.23 83.0568 65.23C88.4652 65.23 92.8661 69.6309 92.8661 75.0393C92.8661 80.4478 88.4658 84.8487 83.0568 84.8487Z" fill="#2F2C2C"/>
</g>
<defs>
<clipPath id="clip0">
<rect width="76" height="76" fill="white" transform="translate(24 16)"/>
</clipPath>
</defs>
</svg>
